<svg id="Line" height="256" viewBox="0 0 64 64" width="256" xmlns="http://www.w3.org/2000/svg">
	<path d="m48 9v13h-32v-14l-3-5h29a6 6 0 0 1 6 6z" fill="#3e3d42" />
	<path d="m20 44h24a8 8 0 0 1 8 8v9a0 0 0 0 1 0 0h-40a0 0 0 0 1 0 0v-9a8 8 0 0 1 8-8z" fill="#6bc19a" />
	<g fill="#ffcbbe">
		<path d="m32 50a5.658 5.658 0 0 1 -5.648-5.99l.648-11.01h10l.648 11.01a5.658 5.658 0 0 1 -5.648 5.99z" />
		<path d="m17 19h2a0 0 0 0 1 0 0v7a0 0 0 0 1 0 0h-2a2 2 0 0 1 -2-2v-3a2 2 0 0 1 2-2z" />
		<path d="m47 19h2a0 0 0 0 1 0 0v7a0 0 0 0 1 0 0h-2a2 2 0 0 1 -2-2v-3a2 2 0 0 1 2-2z" transform="matrix(-1 0 0 -1 94 45)" />
	</g>
	<path d="m41 13.9a5 5 0 0 1 -4-4.9 6 6 0 0 1 -6 6h-6.53a4.02 4.02 0 0 0 -3.58 2.21l-.89 1.79h-1v9a13 13 0 0 0 26 0v-9l-2.51-4.02a2.088 2.088 0 0 0 -1.49-1.08z" fill="#ffddce" />
	<path d="m27 21a1 1 0 0 0 -1 1v2a1 1 0 0 0 2 0v-2a1 1 0 0 0 -1-1z" fill="#3e3d42" />
	<path d="m37 25a1 1 0 0 0 1-1v-2a1 1 0 0 0 -2 0v2a1 1 0 0 0 1 1z" fill="#3e3d42" />
</svg>
