<svg width="256" height="256" viewBox="0 0 160 232" fill="none" xmlns="http://www.w3.org/2000/svg">
<path d="M144 24V76H16V20L4 0H120C126.365 0 132.47 2.52856 136.971 7.02944C141.471 11.5303 144 17.6348 144 24Z" fill="#3E3D42"/>
<path d="M32 164H128C136.487 164 144.626 167.371 150.627 173.373C156.629 179.374 160 187.513 160 196V232H0V196C0 187.513 3.37142 179.374 9.37258 173.373C15.3737 167.371 23.5131 164 32 164V164Z" fill="#6BC19A"/>
<path d="M80 188C76.9162 188 73.8649 187.369 71.0335 186.148C68.2021 184.926 65.6502 183.138 63.5346 180.894C61.419 178.651 59.7843 175.998 58.7307 173.1C57.6772 170.202 57.2271 167.119 57.408 164.04L60 120H100L102.592 164.04C102.773 167.119 102.323 170.202 101.269 173.1C100.216 175.998 98.581 178.651 96.4654 180.894C94.3498 183.138 91.798 184.926 88.9666 186.148C86.1351 187.369 83.0839 188 80 188V188Z" fill="#FFCBBE"/>
<path d="M20 64H28V92H20C17.8783 92 15.8434 91.1571 14.3431 89.6569C12.8429 88.1566 12 86.1217 12 84V72C12 69.8783 12.8429 67.8434 14.3431 66.3431C15.8434 64.8429 17.8783 64 20 64V64Z" fill="#FFCBBE"/>
<path d="M140 92H132V64H140C142.122 64 144.157 64.8429 145.657 66.3431C147.157 67.8434 148 69.8783 148 72V84C148 86.1217 147.157 88.1566 145.657 89.6569C144.157 91.1571 142.122 92 140 92Z" fill="#FFCBBE"/>
<path d="M116 43.6C111.483 42.6779 107.422 40.2233 104.507 36.6516C101.591 33.0799 99.9991 28.6106 100 24C100 30.3652 97.4714 36.4697 92.9706 40.9706C88.4697 45.4714 82.3652 48 76 48H49.88C46.9095 48.007 43.9989 48.8367 41.4712 50.3971C38.9435 51.9575 36.8975 54.1876 35.56 56.84L32 64H28V100C28 113.791 33.4786 127.018 43.2304 136.77C52.9823 146.521 66.2087 152 80 152C93.7913 152 107.018 146.521 116.77 136.77C126.521 127.018 132 113.791 132 100V64L121.96 47.92C121.363 46.7925 120.515 45.8169 119.482 45.068C118.448 44.3191 117.257 43.8169 116 43.6V43.6Z" fill="#FFDDCE"/>
<path d="M60 72C58.9391 72 57.9217 72.4214 57.1716 73.1716C56.4214 73.9217 56 74.9391 56 76V84C56 85.0609 56.4214 86.0783 57.1716 86.8284C57.9217 87.5786 58.9391 88 60 88C61.0609 88 62.0783 87.5786 62.8284 86.8284C63.5786 86.0783 64 85.0609 64 84V76C64 74.9391 63.5786 73.9217 62.8284 73.1716C62.0783 72.4214 61.0609 72 60 72Z" fill="#3E3D42"/>
<path d="M100 88C101.061 88 102.078 87.5786 102.828 86.8284C103.579 86.0783 104 85.0609 104 84V76C104 74.9391 103.579 73.9217 102.828 73.1716C102.078 72.4214 101.061 72 100 72C98.9391 72 97.9217 72.4214 97.1716 73.1716C96.4214 73.9217 96 74.9391 96 76V84C96 85.0609 96.4214 86.0783 97.1716 86.8284C97.9217 87.5786 98.9391 88 100 88Z" fill="#3E3D42"/>
<path d="M68 121.5C68 122.959 68.6321 124.358 69.7574 125.389C70.8826 126.421 72.4087 127 74 127L86 127C87.5913 127 89.1174 126.421 90.2426 125.389C91.3679 124.358 92 122.959 92 121.5C92 120.041 91.3679 118.642 90.2426 117.611C89.1174 116.579 87.5913 116 86 116L74 116C72.4087 116 70.8826 116.579 69.7574 117.611C68.6321 118.642 68 120.041 68 121.5Z" fill="#3E3D42"/>
</svg>
